M48
METRIC,LZ,000.000
;FILE_FORMAT=3:3
;TYPE=PLATED
;Layer: PTH_Through_Via
;EasyEDA v6.5.44, 2024-08-26 14:03:18
;e04413f5f05c4ac1846c34afcf77e532,06c4dd8b78d84ebb914e46ede8edac81,10
;Gerber Generator version 0.2
;Holesize 1 = 0.310 mm
T01C0.310
%
G05
G90
T01
X038481Y120904
X035941Y120904
X025400Y111887
X025527Y114427
X016129Y128905
X012319Y128778
X023876Y111887
X023749Y114427
X016256Y127254
X012319Y127254
X015875Y106553
X012192Y106680
X015748Y104521
X012065Y104648
X026416Y087757
X026416Y090170
X027813Y090297
X027813Y087630
X021209Y097536
X021209Y094996
X017145Y084963
X014351Y085725
X015494Y086868
X018923Y090424
X023749Y094869
X019177Y083947
X017272Y083947
X027813Y090297
X027813Y087630
X021209Y084963
X017272Y077470
X019685Y077470
X015367Y090932
X012700Y091059
M30
