M48
METRIC,LZ,000.000
;FILE_FORMAT=3:3
;TYPE=PLATED
;Layer: PTH_Through
;EasyEDA v6.5.44, 2024-08-26 14:03:18
;e04413f5f05c4ac1846c34afcf77e532,06c4dd8b78d84ebb914e46ede8edac81,10
;Gerber Generator version 0.2
;Holesize 1 = 0.310 mm
T01C0.310
;Holesize 2 = 0.701 mm
T02C0.701
;Holesize 3 = 0.800 mm
T03C0.800
;Holesize 4 = 0.920 mm
T04C0.920
;Holesize 5 = 1.000 mm
T05C1.000
;Holesize 6 = 2.101 mm
T06C2.101
%
G05
G90
T01
X038481Y120904
X035941Y120904
X025400Y111887
X025527Y114427
X016129Y128905
X012319Y128778
X023876Y111887
X023749Y114427
X016256Y127254
X012319Y127254
X015875Y106553
X012192Y106680
X015748Y104521
X012065Y104648
X026416Y087757
X026416Y090170
X027813Y090297
X027813Y087630
X021209Y097536
X021209Y094996
X017145Y084963
X014351Y085725
X015494Y086868
X018923Y090424
X023749Y094869
X019177Y083947
X017272Y083947
X027813Y090297
X027813Y087630
X027813Y087630
X027813Y087630
X027813Y087630
X027813Y087630
X021209Y084963
X017272Y077470
X019685Y077470
X015367Y090932
X012700Y091059
T02
X007927Y064218G85X008727Y064218
X007927Y071418G85X008727Y071418
X010977Y070243
X010977Y065393
T03
X041868Y137740G85X041868Y136040
X030268Y137740G85X030268Y136040
T04
X011134Y102545
X011134Y105045
X011134Y107045
X011134Y109545
X011261Y125151
X011261Y127651
X011261Y129651
X011261Y132151
T05
X032568Y134890
X035068Y134890
X037068Y134890
X039568Y134890
T06
X008424Y113045
X008424Y099045
X008551Y135651
X008551Y121651
M30
