G04 Layer: BottomLayer*
G04 EasyEDA v6.5.44, 2024-08-26 14:03:18*
G04 e04413f5f05c4ac1846c34afcf77e532,06c4dd8b78d84ebb914e46ede8edac81,10*
G04 Gerber Generator version 0.2*
G04 Scale: 100 percent, Rotated: No, Reflected: No *
G04 Dimensions in millimeters *
G04 leading zeros omitted , absolute positions ,4 integer and 5 decimal *
%FSLAX45Y45*%
%MOMM*%

%ADD10C,0.8000*%
%ADD11C,0.4000*%
%ADD12C,0.5000*%
%ADD13O,2.1999956000000003X1.2999974*%
%ADD14C,1.2000*%
%ADD15C,2.6000*%
%ADD16C,1.5240*%
%ADD17R,1.5240X1.5240*%
%ADD18R,1.6000X2.8000*%
%ADD19R,1.6000X1.6000*%
%ADD20C,1.6000*%
%ADD21C,0.6200*%

%LPD*%
D10*
X3848100Y12090400D02*
G01*
X3594100Y12090400D01*
X2540000Y11188700D02*
G01*
X2552700Y11201400D01*
X2552700Y11442700D01*
X1612900Y12890500D02*
G01*
X1244600Y12890500D01*
X1231900Y12877800D01*
X2387600Y11188700D02*
G01*
X2374900Y11201400D01*
X2374900Y11442700D01*
X1625600Y12725400D02*
G01*
X1231900Y12725400D01*
X1587500Y10655300D02*
G01*
X1574800Y10668000D01*
X1219200Y10668000D01*
X1574800Y10452100D02*
G01*
X1562100Y10464800D01*
X1206500Y10464800D01*
X1574800Y10452100D02*
G01*
X1562100Y10464800D01*
X1206500Y10464800D01*
D11*
X2641600Y8775700D02*
G01*
X2641600Y9017000D01*
D10*
X2781300Y9029700D02*
G01*
X2781300Y8763000D01*
X2120900Y9753600D02*
G01*
X2120900Y9499600D01*
D12*
X1892300Y9042400D02*
G01*
X2336800Y9486900D01*
X2374900Y9486900D01*
D11*
X1917700Y8394700D02*
G01*
X1727200Y8394700D01*
D12*
X1435100Y8572500D02*
G01*
X1549400Y8686800D01*
D11*
X2120900Y8496300D02*
G01*
X1720850Y8496300D01*
D12*
X1727200Y7747000D02*
G01*
X1968500Y7747000D01*
D10*
X1536700Y9093200D02*
G01*
X1524000Y9105900D01*
X1270000Y9105900D01*
D13*
G01*
X832713Y6421805D03*
G01*
X832713Y7141794D03*
D14*
G01*
X1097711Y7024293D03*
G01*
X1097711Y6539306D03*
D15*
G01*
X842416Y11304498D03*
G01*
X842416Y9904501D03*
D16*
G01*
X1113409Y10254513D03*
G01*
X1113409Y10504500D03*
G01*
X1113409Y10704499D03*
D17*
G01*
X1113409Y10954512D03*
D15*
G01*
X855116Y13565098D03*
G01*
X855116Y12165101D03*
D16*
G01*
X1126109Y12515113D03*
G01*
X1126109Y12765100D03*
G01*
X1126109Y12965099D03*
D17*
G01*
X1126109Y13215112D03*
D18*
G01*
X4186809Y13688999D03*
G01*
X3026790Y13688999D03*
D19*
G01*
X3256788Y13489000D03*
D20*
G01*
X3506800Y13489000D03*
G01*
X3706799Y13489000D03*
G01*
X3956786Y13489000D03*
D21*
G01*
X2781300Y8763000D03*
G01*
X2781300Y8763000D03*
G01*
X2781300Y8763000D03*
G01*
X2781300Y8763000D03*
G01*
X3848100Y12090400D03*
G01*
X3594100Y12090400D03*
G01*
X2540000Y11188700D03*
G01*
X2552700Y11442700D03*
G01*
X1612900Y12890500D03*
G01*
X1231900Y12877800D03*
G01*
X2387600Y11188700D03*
G01*
X2374900Y11442700D03*
G01*
X1625600Y12725400D03*
G01*
X1231900Y12725400D03*
G01*
X1587500Y10655300D03*
G01*
X1219200Y10668000D03*
G01*
X1574800Y10452100D03*
G01*
X1206500Y10464800D03*
G01*
X2641600Y8775700D03*
G01*
X2641600Y9017000D03*
G01*
X2781300Y9029700D03*
G01*
X2781300Y8763000D03*
G01*
X2120900Y9753600D03*
G01*
X2120900Y9499600D03*
G01*
X1714500Y8496300D03*
G01*
X1435100Y8572500D03*
G01*
X1549400Y8686800D03*
G01*
X1892300Y9042400D03*
G01*
X2374900Y9486900D03*
G01*
X1917700Y8394700D03*
G01*
X1727200Y8394700D03*
G01*
X2781300Y9029700D03*
G01*
X2781300Y8763000D03*
G01*
X2120900Y8496300D03*
G01*
X1727200Y7747000D03*
G01*
X1968500Y7747000D03*
G01*
X1536700Y9093200D03*
G01*
X1270000Y9105900D03*
M02*
