G04 Layer: TopPasteMaskLayer*
G04 EasyEDA v6.5.44, 2024-08-26 14:03:18*
G04 e04413f5f05c4ac1846c34afcf77e532,06c4dd8b78d84ebb914e46ede8edac81,10*
G04 Gerber Generator version 0.2*
G04 Scale: 100 percent, Rotated: No, Reflected: No *
G04 Dimensions in millimeters *
G04 leading zeros omitted , absolute positions ,4 integer and 5 decimal *
%FSLAX45Y45*%
%MOMM*%

%ADD10R,0.9000X0.8000*%
%ADD11R,0.8000X0.9000*%
%ADD12R,0.7500X1.0000*%
%ADD13O,1.7450054X0.5599938*%
%ADD14R,1.5000X0.6000*%
%ADD15R,4.0000X1.3500*%

%LPD*%
G36*
X1710436Y9399625D02*
G01*
X1706422Y9395612D01*
X1706422Y9349587D01*
X1710436Y9345574D01*
X1760524Y9345574D01*
X1764487Y9349587D01*
X1764487Y9395612D01*
X1760524Y9399625D01*
G37*
G36*
X1795475Y9399625D02*
G01*
X1791512Y9395612D01*
X1791512Y9349587D01*
X1795475Y9345574D01*
X1845564Y9345574D01*
X1849577Y9349587D01*
X1849577Y9395612D01*
X1845564Y9399625D01*
G37*
G36*
X1958187Y8263077D02*
G01*
X1954174Y8259064D01*
X1954174Y8208975D01*
X1958187Y8205012D01*
X2004212Y8205012D01*
X2008225Y8208975D01*
X2008225Y8259064D01*
X2004212Y8263077D01*
G37*
G36*
X1958187Y8177987D02*
G01*
X1954174Y8174024D01*
X1954174Y8123936D01*
X1958187Y8119922D01*
X2004212Y8119922D01*
X2008225Y8123936D01*
X2008225Y8174024D01*
X2004212Y8177987D01*
G37*
G36*
X1035202Y6671818D02*
G01*
X1035202Y6631787D01*
X1160170Y6631787D01*
X1160170Y6671818D01*
G37*
G36*
X1035202Y6931812D02*
G01*
X1035202Y6891781D01*
X1160170Y6891781D01*
X1160170Y6931812D01*
G37*
G36*
X1035202Y6736791D02*
G01*
X1035202Y6696811D01*
X1160170Y6696811D01*
X1160170Y6736791D01*
G37*
G36*
X1035202Y6801815D02*
G01*
X1035202Y6761784D01*
X1160170Y6761784D01*
X1160170Y6801815D01*
G37*
G36*
X1035202Y6866788D02*
G01*
X1035202Y6826808D01*
X1160170Y6826808D01*
X1160170Y6866788D01*
G37*
G36*
X1085240Y6598005D02*
G01*
X1062431Y6587845D01*
X1045718Y6569303D01*
X1038047Y6545580D01*
X1040637Y6520738D01*
X1053134Y6499148D01*
X1073302Y6484518D01*
X1097686Y6479286D01*
X1122121Y6484518D01*
X1142288Y6499148D01*
X1154785Y6520738D01*
X1157376Y6545580D01*
X1149654Y6569303D01*
X1132992Y6587845D01*
X1110183Y6598005D01*
G37*
G36*
X1085240Y7082993D02*
G01*
X1062431Y7072833D01*
X1045718Y7054291D01*
X1038047Y7030567D01*
X1040637Y7005777D01*
X1053134Y6984136D01*
X1073302Y6969506D01*
X1097686Y6964273D01*
X1122121Y6969506D01*
X1142288Y6984136D01*
X1154785Y7005777D01*
X1157376Y7030567D01*
X1149654Y7054291D01*
X1132992Y7072833D01*
X1110183Y7082993D01*
G37*
G36*
X787704Y7206792D02*
G01*
X781202Y7206488D01*
X774801Y7205522D01*
X768553Y7203897D01*
X762457Y7201712D01*
X756615Y7198868D01*
X751078Y7195515D01*
X745896Y7191603D01*
X741172Y7187184D01*
X736854Y7182307D01*
X733094Y7177074D01*
X729843Y7171436D01*
X727202Y7165543D01*
X725119Y7159396D01*
X723696Y7153097D01*
X722884Y7146645D01*
X722731Y7140194D01*
X723188Y7133691D01*
X724306Y7127341D01*
X726084Y7121093D01*
X728472Y7115048D01*
X731418Y7109307D01*
X734923Y7103872D01*
X738936Y7098792D01*
X743508Y7094169D01*
X748436Y7090003D01*
X753821Y7086346D01*
X759510Y7083247D01*
X765454Y7080707D01*
X771652Y7078827D01*
X778002Y7077506D01*
X784453Y7076897D01*
X877722Y7076795D01*
X884174Y7077100D01*
X890574Y7078065D01*
X896874Y7079691D01*
X902969Y7081875D01*
X908812Y7084720D01*
X914298Y7088073D01*
X919480Y7091984D01*
X924255Y7096404D01*
X928522Y7101281D01*
X932281Y7106513D01*
X935532Y7112152D01*
X938225Y7118045D01*
X940257Y7124192D01*
X941730Y7130491D01*
X942492Y7136942D01*
X942695Y7143394D01*
X942187Y7149896D01*
X941069Y7156246D01*
X939292Y7162495D01*
X936955Y7168540D01*
X934008Y7174280D01*
X930452Y7179716D01*
X926439Y7184796D01*
X921918Y7189470D01*
X916940Y7193584D01*
X911606Y7197242D01*
X905916Y7200341D01*
X899921Y7202881D01*
X893724Y7204760D01*
X887374Y7206081D01*
X880922Y7206691D01*
G37*
G36*
X787704Y6486804D02*
G01*
X781202Y6486499D01*
X774801Y6485534D01*
X768553Y6483908D01*
X762457Y6481724D01*
X756615Y6478879D01*
X751078Y6475526D01*
X745896Y6471615D01*
X741172Y6467195D01*
X736854Y6462318D01*
X733094Y6457086D01*
X729843Y6451447D01*
X727202Y6445554D01*
X725119Y6439408D01*
X723696Y6433108D01*
X722884Y6426657D01*
X722731Y6420205D01*
X723188Y6413703D01*
X724306Y6407353D01*
X726084Y6401104D01*
X728472Y6395059D01*
X731418Y6389319D01*
X734923Y6383883D01*
X738936Y6378803D01*
X743508Y6374180D01*
X748436Y6370015D01*
X753821Y6366357D01*
X759510Y6363258D01*
X765454Y6360718D01*
X771652Y6358839D01*
X778002Y6357518D01*
X784453Y6356908D01*
X877722Y6356807D01*
X884174Y6357112D01*
X890574Y6358077D01*
X896874Y6359702D01*
X902969Y6361887D01*
X908812Y6364732D01*
X914298Y6368084D01*
X919480Y6371996D01*
X924255Y6376416D01*
X928522Y6381292D01*
X932281Y6386525D01*
X935532Y6392164D01*
X938225Y6398056D01*
X940257Y6404203D01*
X941730Y6410502D01*
X942492Y6416954D01*
X942695Y6423406D01*
X942187Y6429908D01*
X941069Y6436258D01*
X939292Y6442506D01*
X936955Y6448552D01*
X934008Y6454292D01*
X930452Y6459728D01*
X926439Y6464808D01*
X921918Y6469430D01*
X916940Y6473596D01*
X911606Y6477254D01*
X905916Y6480352D01*
X899921Y6482892D01*
X893724Y6484772D01*
X887374Y6486093D01*
X880922Y6486702D01*
G37*
D10*
G01*
X4254500Y10915802D03*
G01*
X4254500Y10775797D03*
D11*
G01*
X1581302Y13144500D03*
G01*
X1441297Y13144500D03*
G01*
X1467002Y10922000D03*
G01*
X1326997Y10922000D03*
G01*
X1479702Y9372600D03*
G01*
X1339697Y9372600D03*
D10*
G01*
X1574800Y8109102D03*
G01*
X1574800Y7969097D03*
G01*
X1549400Y7740802D03*
G01*
X1549400Y7600797D03*
G01*
X3822700Y10915802D03*
G01*
X3822700Y10775797D03*
G01*
X4025900Y10915802D03*
G01*
X4025900Y10775797D03*
D12*
G01*
X4406900Y11521846D03*
G01*
X4406900Y11287353D03*
D13*
G01*
X3103651Y10134600D03*
G01*
X3103651Y10007600D03*
G01*
X3103651Y9880600D03*
G01*
X3103651Y9753600D03*
G01*
X3103651Y9626600D03*
G01*
X3103651Y9499600D03*
G01*
X3103651Y9372600D03*
G01*
X3103651Y9245600D03*
G01*
X3678148Y10134600D03*
G01*
X3678148Y10007600D03*
G01*
X3678148Y9880600D03*
G01*
X3678148Y9753600D03*
G01*
X3678148Y9626600D03*
G01*
X3678148Y9499600D03*
G01*
X3678148Y9372600D03*
G01*
X3678148Y9245600D03*
D14*
G01*
X1302410Y8814409D03*
G01*
X1302410Y8734399D03*
G01*
X1302410Y8654389D03*
G01*
X1302410Y8574404D03*
G01*
X1302410Y8494395D03*
G01*
X1302410Y8414410D03*
G01*
X1302410Y8334400D03*
G01*
X1302410Y8254390D03*
D15*
G01*
X907414Y9096908D03*
G01*
X907414Y7971891D03*
M02*
